<?xml version="1.0" encoding="UTF-8" standalone="no"?>
<!DOCTYPE svg PUBLIC "-//W3C//DTD SVG 1.1//EN" "http://www.w3.org/Graphics/SVG/1.1/DTD/svg11.dtd">
<svg width="100%" height="100%" viewBox="0 0 1500 1500" version="1.1" xmlns="http://www.w3.org/2000/svg" xmlns:xlink="http://www.w3.org/1999/xlink" xml:space="preserve" xmlns:serif="http://www.serif.com/" style="fill-rule:evenodd;clip-rule:evenodd;stroke-linejoin:round;stroke-miterlimit:2;">
    <g transform="matrix(1.08538,0,0,1.08538,-63.5542,-62.947)">
        <g id="Ebene3">
            <g>
                <path d="M695,1096L695,1425C448.255,1403.74 256.517,1257.61 154,1072L447.21,924.79C503.573,1023.61 589.445,1076.14 695,1096ZM412,1058L310,1112C386.891,1206.15 482.414,1262.78 589,1297.11L589.091,1179C519.194,1150.97 459.415,1111.48 412,1058Z" style="fill:rgb(0,150,137);"/>
                <g transform="matrix(-1,0,0,1,1500,1)">
                    <path d="M694.937,1094.71L695,1424C460.255,1403.74 258.909,1266.4 155.392,1073.79L447.21,924.79C512.846,1029 596.552,1079.02 694.937,1094.71ZM412,1058L310,1112C386.891,1206.15 482.414,1261.78 589,1296.11L589.091,1178C523.36,1152.28 470.121,1117.43 412,1058Z" style="fill:rgb(0,117,149);"/>
                </g>
                <path d="M273.388,267.719L476.994,531.491C414.99,621.997 390.783,718.414 405.642,819.033L109.081,965.002C31.698,725.055 73.822,482.017 273.388,267.719ZM273.345,437.834L346.921,533.406C311.302,602.486 293.751,676.493 292.308,754.893L182.323,807.989C174.513,679.517 203.483,555.949 273.345,437.834Z" style="fill:rgb(0,150,137);"/>
                <g transform="matrix(-0.999945,-0.0104718,-0.0104718,0.999945,1510.54,10.5127)">
                    <path d="M273.388,267.719L477.989,531.021C410.307,619.065 390.439,715.569 409.652,818.075L110.359,961.597C36.465,728.213 79.568,471.696 273.388,267.719ZM273.345,437.834L347.91,534.417C310.591,602.501 294.603,675.358 295.148,754.923L185.333,807.02C173.312,677.184 199.239,554.574 273.345,437.834Z" style="fill:rgb(0,117,149);"/>
                </g>
                <path d="M558.455,457.111L362.391,193.684C471.877,117.751 607.517,73.595 750,73L750,180C652.601,181.701 584.614,199.997 524.628,226.076L593.131,319.677C647.617,301.66 694.54,291.283 749.769,293.246L750.017,400.497C678.123,398.563 617.707,421.119 558.455,457.111Z" style="fill:rgb(0,150,137);"/>
                <g transform="matrix(-1,0,0,1,1500.03,0)">
                    <path d="M558.455,457.111L362.391,193.684C471.877,117.751 607.517,73.595 750,73L750,180C652.601,181.701 584.614,199.997 524.628,226.076L593.131,319.677C647.617,301.66 694.54,291.283 749.769,293.246L750.017,400.497C678.123,398.563 617.707,421.119 558.455,457.111Z" style="fill:rgb(0,117,149);"/>
                </g>
                <g transform="matrix(1.50862,0,0,1.45228,-206.466,-514.212)">
                    <ellipse cx="634" cy="870.5" rx="116" ry="120.5" style="fill:rgb(0,117,149);"/>
                </g>
            </g>
        </g>
    </g>
</svg>
